<svg width="20" height="20" viewBox="0 0 20 20" fill="none" xmlns="http://www.w3.org/2000/svg">
<path d="M15.8567 2.62037H14.0473V1.81092C14.0473 1.54903 13.7616 1.43001 13.4997 1.43001H12.0951C11.7618 0.477696 10.9285 0.00154151 9.97622 0.00154151C9.03439 -0.0338659 8.17773 0.543635 7.85733 1.43001H6.47649C6.2146 1.43001 5.95272 1.54903 5.95272 1.81092V2.62037H4.14329C3.07104 2.63181 2.19383 3.47767 2.14343 4.54878V18.1906C2.14343 19.2381 3.09574 19.9999 4.14329 19.9999H15.8567C16.9042 19.9999 17.8565 19.2381 17.8565 18.1906V4.54882C17.8061 3.47767 16.9289 2.63181 15.8567 2.62037ZM6.90498 2.38231H8.21442C8.44299 2.35443 8.62659 2.18053 8.66678 1.95378C8.80778 1.33978 9.34645 0.899031 9.97622 0.882444C10.6002 0.901355 11.1307 1.34347 11.2618 1.95378C11.3045 2.18837 11.5002 2.3645 11.738 2.38231H13.095V4.28693H6.90498V2.38231ZM16.9042 18.1906C16.9042 18.7144 16.3805 19.0477 15.8567 19.0477H4.14329C3.61952 19.0477 3.09574 18.7144 3.09574 18.1906V4.54882C3.14432 4.00363 3.596 3.5827 4.14329 3.57272H5.95267V4.78692C5.97782 5.05368 6.20886 5.25323 6.47644 5.23929H13.4997C13.7722 5.25419 14.0105 5.05737 14.0473 4.78692V3.57268H15.8566C16.4039 3.5827 16.8556 4.00358 16.9042 4.54878V18.1906H16.9042Z" fill="#3A3A3A"/>
<path d="M8.16678 10.6436C7.98819 10.4553 7.69172 10.4447 7.50014 10.6198L5.97644 12.0721L5.33364 11.4054C5.15505 11.2172 4.85857 11.2066 4.667 11.3816C4.48258 11.5748 4.48258 11.8788 4.667 12.0721L5.6431 13.072C5.72758 13.1666 5.84962 13.2189 5.97639 13.2148C6.10198 13.2131 6.22178 13.1617 6.30969 13.072L8.16669 11.3102C8.35079 11.1413 8.36309 10.8552 8.19416 10.6711C8.18551 10.6615 8.17635 10.6523 8.16678 10.6436Z" fill="#3A3A3A"/>
<path d="M14.9996 11.6673H9.52382C9.26084 11.6673 9.04767 11.8805 9.04767 12.1435C9.04767 12.4064 9.26084 12.6196 9.52382 12.6196H14.9996C15.2626 12.6196 15.4757 12.4064 15.4757 12.1435C15.4757 11.8805 15.2626 11.6673 14.9996 11.6673Z" fill="#3A3A3A"/>
<path d="M8.16678 6.83436C7.98819 6.64611 7.69172 6.63549 7.50014 6.81057L5.97644 8.26282L5.33364 7.59619C5.15505 7.40794 4.85857 7.39732 4.667 7.5724C4.48258 7.76562 4.48258 8.06961 4.667 8.26282L5.6431 9.26275C5.72758 9.35735 5.84962 9.40967 5.97639 9.40561C6.10198 9.40383 6.22178 9.35248 6.30969 9.26275L8.16669 7.50099C8.35079 7.33211 8.36309 7.04594 8.19416 6.86188C8.18551 6.85227 8.17635 6.84311 8.16678 6.83436Z" fill="#3A3A3A"/>
<path d="M14.9996 7.85806H9.52382C9.26084 7.85806 9.04767 8.07124 9.04767 8.33422C9.04767 8.5972 9.26084 8.81037 9.52382 8.81037H14.9996C15.2626 8.81037 15.4757 8.5972 15.4757 8.33422C15.4757 8.07124 15.2626 7.85806 14.9996 7.85806Z" fill="#3A3A3A"/>
<path d="M8.16678 14.4528C7.98819 14.2645 7.69172 14.254 7.50014 14.429L5.97644 15.8812L5.33364 15.2146C5.15505 15.0264 4.85857 15.0158 4.667 15.1908C4.48258 15.384 4.48258 15.688 4.667 15.8812L5.6431 16.8812C5.72758 16.9758 5.84962 17.0281 5.97639 17.024C6.10198 17.0223 6.22178 16.9709 6.30969 16.8812L8.16669 15.1194C8.35079 14.9505 8.36309 14.6644 8.19416 14.4803C8.18551 14.4707 8.17635 14.4616 8.16678 14.4528Z" fill="#3A3A3A"/>
<path d="M14.9996 15.4765H9.52382C9.26084 15.4765 9.04767 15.6897 9.04767 15.9527C9.04767 16.2157 9.26084 16.4288 9.52382 16.4288H14.9996C15.2626 16.4288 15.4757 16.2157 15.4757 15.9527C15.4757 15.6897 15.2626 15.4765 14.9996 15.4765Z" fill="#3A3A3A"/>
</svg>
