<svg width="24" height="24" viewBox="0 0 24 24" fill="none" xmlns="http://www.w3.org/2000/svg">
<rect x="1" y="1" width="22" height="22" rx="11" stroke="white" stroke-width="2"/>
<path d="M12.3196 18.0511C11.3203 18.0511 10.4532 17.9041 9.71844 17.6102C8.99833 17.3163 8.39579 16.9048 7.91082 16.3757C7.44055 15.832 7.08784 15.2 6.85271 14.4799C6.61757 13.7598 6.5 12.9809 6.5 12.1432C6.5 11.2468 6.61757 10.4238 6.85271 9.6743C7.10254 8.9248 7.46994 8.27083 7.95491 7.71238C8.43988 7.15393 9.03507 6.7204 9.74048 6.41178C10.4606 6.10316 11.2836 5.94885 12.2094 5.94885C13.1353 5.94885 13.9362 6.10316 14.6122 6.41178C15.3029 6.7204 15.8614 7.15393 16.2876 7.71238C16.6271 8.14557 16.878 8.63938 17.0403 9.19382C17.1121 9.4391 16.9623 9.68821 16.7185 9.76468L15.1523 10.2558C14.8434 10.3526 14.5292 10.1314 14.4354 9.82161C14.3767 9.62745 14.296 9.44608 14.1934 9.27751C13.9876 8.9248 13.7084 8.65293 13.3557 8.46188C13.003 8.27083 12.5842 8.1753 12.0992 8.1753C11.6289 8.1753 11.2174 8.27083 10.8647 8.46188C10.5267 8.63823 10.2401 8.89541 10.005 9.23342C9.78457 9.57143 9.60822 9.98292 9.47595 10.4679C9.35838 10.9382 9.2996 11.4672 9.2996 12.0551C9.2996 12.8633 9.40982 13.5541 9.63026 14.1272C9.8507 14.7004 10.1887 15.1486 10.6443 15.4719C11.0999 15.7805 11.6657 15.9348 12.3417 15.9348C12.9442 15.9348 13.4292 15.8246 13.7966 15.6042C14.1787 15.369 14.4653 15.0678 14.6563 14.7004C14.7727 14.4925 14.8632 14.2729 14.9279 14.0416C15.0086 13.7528 15.2887 13.5454 15.5814 13.6108L17.047 13.9379C17.3024 13.9949 17.4733 14.2401 17.4152 14.4953C17.3189 14.9192 17.1781 15.3109 16.993 15.6703C16.7432 16.1553 16.3978 16.5815 15.9569 16.9489C15.5307 17.3016 15.0164 17.5734 14.4138 17.7645C13.8113 17.9555 13.1132 18.0511 12.3196 18.0511Z" fill="white"/>
</svg>
