<svg width="20" height="20" viewBox="0 0 20 20" fill="none" xmlns="http://www.w3.org/2000/svg">
<mask id="mask0_1_1500" style="mask-type:luminance" maskUnits="userSpaceOnUse" x="0" y="0" width="20" height="20">
<path d="M0 1.90735e-06H20V20H0V1.90735e-06Z" fill="white"/>
</mask>
<g mask="url(#mask0_1_1500)">
<path d="M10 7.8125C10.2156 7.8125 10.3906 7.9875 10.3906 8.20313C10.3906 8.41875 10.2156 8.59375 10 8.59375C9.78437 8.59375 9.60938 8.41875 9.60938 8.20313C9.60938 7.9875 9.78437 7.8125 10 7.8125Z" fill="#3A3A3A"/>
<path d="M7.88086 6.08398C8.38242 5.47031 9.14531 5.07813 10 5.07813C10.8547 5.07813 11.6176 5.47031 12.1191 6.08398" stroke="#3A3A3A" stroke-width="0.9" stroke-miterlimit="10" stroke-linecap="round" stroke-linejoin="round"/>
<path d="M8.99957 7.20273C9.20547 6.86601 9.57692 6.64062 9.99996 6.64062C10.423 6.64062 10.7945 6.86601 11.0004 7.20273" stroke="#3A3A3A" stroke-width="0.9" stroke-miterlimit="10" stroke-linecap="round" stroke-linejoin="round"/>
<path d="M5.70312 7.92962V3.51559C5.70312 3.08399 6.05273 2.73434 6.48437 2.73434H13.5156C13.9473 2.73434 14.2969 3.08399 14.2969 3.51559V18.8281C14.2969 19.2597 13.9473 19.6093 13.5156 19.6093H6.48437C6.05273 19.6093 5.70312 19.2597 5.70312 18.8281V11.0547" stroke="#3A3A3A" stroke-width="0.9" stroke-miterlimit="10" stroke-linecap="round" stroke-linejoin="round"/>
<path d="M7.65625 2.73438V1.17188C7.65625 0.740234 8.00586 0.390625 8.4375 0.390625H11.5625C11.9941 0.390625 12.3438 0.740234 12.3438 1.17188V2.73438" stroke="#3A3A3A" stroke-width="0.9" stroke-miterlimit="10" stroke-linecap="round" stroke-linejoin="round"/>
<path d="M12.7344 16.4844V18.0469H7.26562V9.76563H12.7344V16.4844Z" stroke="#3A3A3A" stroke-width="0.9" stroke-miterlimit="10" stroke-linecap="round" stroke-linejoin="round"/>
<path d="M7.26562 13.9062H12.7344" stroke="#3A3A3A" stroke-width="0.9" stroke-miterlimit="10" stroke-linecap="round" stroke-linejoin="round"/>
<path d="M5.70312 9.10156C5.91875 9.10156 6.09375 9.27656 6.09375 9.49219C6.09375 9.70781 5.91875 9.88281 5.70312 9.88281C5.4875 9.88281 5.3125 9.70781 5.3125 9.49219C5.3125 9.27656 5.4875 9.10156 5.70312 9.10156Z" fill="#3A3A3A"/>
</g>
</svg>
