<svg width="37" height="39" viewBox="0 0 37 39" fill="none" xmlns="http://www.w3.org/2000/svg">
<path d="M24.265 19.1828C27.0735 19.1828 29.3575 17.068 29.3575 14.4675C29.3575 11.867 27.0735 9.7522 24.265 9.7522C21.4565 9.7522 19.1725 11.867 19.1725 14.4675C19.1725 17.068 21.4565 19.1828 24.265 19.1828ZM24.265 12.1098C25.6693 12.1098 26.8113 13.1672 26.8113 14.4675C26.8113 15.7677 25.6693 16.8251 24.265 16.8251C22.8608 16.8251 21.7188 15.7677 21.7188 14.4675C21.7188 13.1672 22.8608 12.1098 24.265 12.1098ZM26.6432 21.8952C26.4815 21.261 25.7839 20.8709 25.1129 21.017C24.428 21.1667 24.004 21.8009 24.1644 22.434L25.5101 27.7257C25.7444 28.5014 25.5751 29.3148 25.0454 29.9572C24.512 30.602 23.701 30.971 22.82 30.971H5.33997C4.48697 30.971 3.69254 30.6209 3.16037 30.0103C2.62947 29.4008 2.43087 28.6157 2.60147 27.9049L5.2674 18.7372C6.20951 14.8353 9.90413 12.111 14.2506 12.111C14.798 12.111 15.3442 12.1558 15.8738 12.2454C16.5753 12.3609 17.2284 11.9342 17.3545 11.2953C17.4805 10.654 17.0196 10.041 16.3283 9.92431C15.6485 9.80996 14.9495 9.7522 14.2493 9.7522C8.7023 9.7522 3.98663 13.2356 2.79498 18.1737L0.129051 27.3402C-0.224879 28.8067 0.157059 30.3191 1.17811 31.4909C2.19534 32.6591 3.71291 33.3298 5.33997 33.3298H7.84294C8.43494 36.0164 11.0054 38.0451 14.08 38.0451C17.1546 38.0451 19.725 36.0164 20.317 33.3298H22.8187C24.4993 33.3298 26.0487 32.6225 27.0672 31.3895C28.087 30.1541 28.4129 28.5874 27.9749 27.1398L26.6432 21.8964V21.8952ZM14.08 35.6863C12.4224 35.6863 11.0219 34.6973 10.4949 33.3286H17.6638C17.1368 34.6973 15.7363 35.6863 14.0787 35.6863H14.08Z" fill="#797878"/>
<circle cx="25.0078" cy="12" r="11.5" fill="#BE202E" stroke="white"/>
<path d="M19.5631 9.628V8.08H22.5631V16.6H20.8351V9.628H19.5631ZM27.3129 7.66C27.8889 7.66 28.3809 7.764 28.7889 7.972C29.2049 8.172 29.5209 8.448 29.7369 8.8C29.9529 9.144 30.0609 9.532 30.0609 9.964C30.0609 10.476 29.9289 10.908 29.6649 11.26C29.4009 11.604 29.1049 11.832 28.7769 11.944V11.992C29.2329 12.144 29.5849 12.404 29.8329 12.772C30.0889 13.132 30.2169 13.596 30.2169 14.164C30.2169 14.908 29.9609 15.508 29.4489 15.964C28.9369 16.42 28.2289 16.648 27.3249 16.648C26.4369 16.648 25.7089 16.42 25.1409 15.964C24.5729 15.508 24.2769 14.84 24.2529 13.96H25.8849C25.9009 14.352 26.0329 14.668 26.2809 14.908C26.5369 15.14 26.8849 15.256 27.3249 15.256C27.7329 15.256 28.0449 15.144 28.2609 14.92C28.4849 14.688 28.5969 14.388 28.5969 14.02C28.5969 13.54 28.4449 13.2 28.1409 13C27.8449 12.792 27.3729 12.688 26.7249 12.688H26.3769V11.308H26.7249C27.8609 11.308 28.4289 10.928 28.4289 10.168C28.4289 9.84 28.3249 9.58 28.1169 9.388C27.9089 9.196 27.6169 9.1 27.2409 9.1C26.8489 9.1 26.5569 9.208 26.3649 9.424C26.1729 9.64 26.0609 9.88 26.0289 10.144H24.3849C24.4089 9.36 24.6849 8.752 25.2129 8.32C25.7489 7.88 26.4489 7.66 27.3129 7.66Z" fill="white"/>
</svg>
