<svg width="28" height="29" viewBox="0 0 28 29" fill="none" xmlns="http://www.w3.org/2000/svg">
<path d="M13.7458 9.4306C12.7386 9.4306 11.754 9.70714 10.9166 10.2253C10.0791 10.7434 9.42641 11.4798 9.04097 12.3414C8.65553 13.203 8.55468 14.1511 8.75117 15.0658C8.94767 15.9805 9.43268 16.8207 10.1449 17.4801C10.8571 18.1395 11.7645 18.5886 12.7523 18.7706C13.7402 18.9525 14.7641 18.8591 15.6947 18.5022C16.6252 18.1454 17.4205 17.541 17.9801 16.7656C18.5397 15.9901 18.8383 15.0785 18.8383 14.1459C18.8383 12.8953 18.3018 11.696 17.3468 10.8117C16.3918 9.92738 15.0965 9.4306 13.7458 9.4306ZM13.7458 16.5035C13.2422 16.5035 12.7499 16.3653 12.3312 16.1062C11.9125 15.8471 11.5861 15.4789 11.3934 15.0481C11.2007 14.6173 11.1503 14.1433 11.2485 13.6859C11.3468 13.2286 11.5893 12.8085 11.9454 12.4788C12.3015 12.1491 12.7552 11.9245 13.2491 11.8335C13.743 11.7426 14.255 11.7893 14.7202 11.9677C15.1855 12.1461 15.5832 12.4483 15.863 12.836C16.1428 13.2238 16.2921 13.6796 16.2921 14.1459C16.2921 14.7712 16.0238 15.3708 15.5463 15.813C15.0688 16.2551 14.4211 16.5035 13.7458 16.5035Z" fill="#797878"/>
<path d="M25.578 16.3856L25.0127 16.0839C25.2672 14.8018 25.2672 13.4876 25.0127 12.2055L25.578 11.9037C26.0127 11.6715 26.3937 11.3623 26.6994 10.9938C27.005 10.6252 27.2292 10.2045 27.3593 9.75572C27.4893 9.30692 27.5226 8.83879 27.4573 8.37808C27.3919 7.91736 27.2292 7.47307 26.9784 7.07058C26.7277 6.66808 26.3937 6.31527 25.9957 6.03227C25.5976 5.74928 25.1433 5.54165 24.6586 5.42124C24.1739 5.30083 23.6683 5.27 23.1707 5.3305C22.6731 5.39101 22.1933 5.54166 21.7586 5.77387L21.1921 6.07683C20.1221 5.23034 18.8924 4.57412 17.5649 4.1412V3.53647C17.5649 2.59854 17.1625 1.69902 16.4463 1.03581C15.73 0.372591 14.7585 0 13.7456 0C12.7326 0 11.7611 0.372591 11.0448 1.03581C10.3286 1.69902 9.92617 2.59854 9.92617 3.53647V4.1412C8.59879 4.57568 7.36953 5.2335 6.3003 6.08154L5.73121 5.77623C4.85331 5.30727 3.81016 5.18042 2.83125 5.4236C1.85235 5.66678 1.01786 6.26006 0.511382 7.07293C0.00490038 7.88581 -0.132092 8.85168 0.130541 9.75808C0.393175 10.6645 1.03392 11.4371 1.91182 11.9061L2.47709 12.2079C2.22261 13.4899 2.22261 14.8042 2.47709 16.0862L1.91182 16.388C1.03392 16.857 0.393175 17.6296 0.130541 18.536C-0.132092 19.4424 0.00490038 20.4083 0.511382 21.2212C1.01786 22.034 1.85235 22.6273 2.83125 22.8705C3.81016 23.1137 4.85331 22.9868 5.73121 22.5179L6.29775 22.2149C7.36815 23.0615 8.59827 23.7177 9.92617 24.1505V24.7553C9.92617 25.6932 10.3286 26.5927 11.0448 27.2559C11.7611 27.9191 12.7326 28.2917 13.7456 28.2917C14.7585 28.2917 15.73 27.9191 16.4463 27.2559C17.1625 26.5927 17.5649 25.6932 17.5649 24.7553V24.1505C18.8923 23.7161 20.1216 23.0582 21.1908 22.2102L21.7599 22.5143C22.6378 22.9833 23.6809 23.1101 24.6598 22.867C25.6388 22.6238 26.4732 22.0305 26.9797 21.2176C27.4862 20.4048 27.6232 19.4389 27.3606 18.5325C27.0979 17.6261 26.4572 16.8534 25.5793 16.3845L25.578 16.3856ZM22.3341 11.9344C22.7652 13.3809 22.7652 14.9085 22.3341 16.355C22.2588 16.6067 22.276 16.8745 22.3829 17.1163C22.4898 17.358 22.6804 17.56 22.9248 17.6906L24.3049 18.4285C24.5975 18.5849 24.811 18.8424 24.8985 19.1445C24.986 19.4466 24.9403 19.7685 24.7715 20.0394C24.6027 20.3103 24.3245 20.508 23.9982 20.589C23.672 20.6701 23.3243 20.6278 23.0317 20.4714L21.6491 19.7311C21.4046 19.6 21.1198 19.5479 20.8397 19.5831C20.5597 19.6183 20.3002 19.7388 20.1023 19.9256C18.9691 20.9968 17.5415 21.761 15.9735 22.1359C15.6998 22.2011 15.4574 22.3487 15.2842 22.5555C15.1111 22.7623 15.0173 23.0166 15.0174 23.2782V24.7553C15.0174 25.0679 14.8833 25.3678 14.6445 25.5888C14.4058 25.8099 14.0819 25.9341 13.7443 25.9341C13.4066 25.9341 13.0828 25.8099 12.844 25.5888C12.6053 25.3678 12.4711 25.0679 12.4711 24.7553V23.2794C12.4713 23.0177 12.3774 22.7635 12.2043 22.5567C12.0312 22.3499 11.7887 22.2023 11.515 22.1371C9.94698 21.7607 8.51978 20.9948 7.38755 19.9221C7.18961 19.7353 6.93016 19.6148 6.6501 19.5796C6.37003 19.5444 6.08527 19.5964 5.8407 19.7276L4.46063 20.4667C4.31578 20.5453 4.15557 20.5967 3.98922 20.6177C3.82287 20.6388 3.65366 20.6292 3.49133 20.5894C3.32901 20.5497 3.17678 20.4806 3.04341 20.3862C2.91003 20.2917 2.79815 20.1738 2.7142 20.0392C2.63024 19.9046 2.57588 19.7559 2.55424 19.6017C2.5326 19.4475 2.54411 19.2909 2.5881 19.1409C2.63209 18.9909 2.7077 18.8504 2.81057 18.7275C2.91344 18.6046 3.04154 18.5018 3.1875 18.425L4.56757 17.6871C4.81194 17.5565 5.00256 17.3545 5.10949 17.1127C5.21641 16.871 5.23358 16.6032 5.1583 16.3514C4.72716 14.905 4.72716 13.3774 5.1583 11.9309C5.23223 11.6796 5.21424 11.4128 5.10714 11.172C5.00004 10.9313 4.80987 10.7301 4.5663 10.6L3.18622 9.86203C2.89365 9.70571 2.68012 9.44817 2.59261 9.14608C2.50511 8.84398 2.5508 8.52207 2.71962 8.25117C2.88845 7.98026 3.16659 7.78255 3.49285 7.70153C3.81911 7.6205 4.16678 7.66281 4.45935 7.81913L5.84197 8.55943C6.08588 8.69088 6.37004 8.74358 6.64981 8.70922C6.92957 8.67487 7.18908 8.55542 7.38755 8.36964C8.52074 7.29849 9.94835 6.53424 11.5163 6.15935C11.7908 6.094 12.034 5.94569 12.2071 5.73792C12.3803 5.53015 12.4737 5.27481 12.4724 5.01235V3.53647C12.4724 3.22382 12.6066 2.92399 12.8453 2.70291C13.0841 2.48184 13.4079 2.35764 13.7456 2.35764C14.0832 2.35764 14.407 2.48184 14.6458 2.70291C14.8845 2.92399 15.0187 3.22382 15.0187 3.53647V5.01235C15.0185 5.274 15.1124 5.52826 15.2855 5.73507C15.4586 5.94187 15.7011 6.08948 15.9748 6.15463C17.5433 6.53086 18.971 7.29677 20.1036 8.36964C20.3015 8.55644 20.5609 8.67695 20.841 8.71216C21.1211 8.74738 21.4058 8.69531 21.6504 8.56414L23.0305 7.82502C23.1753 7.7464 23.3355 7.69508 23.5019 7.67402C23.6682 7.65296 23.8374 7.66257 23.9998 7.70231C24.1621 7.74205 24.3143 7.81112 24.4477 7.90555C24.5811 7.99999 24.693 8.11792 24.7769 8.25255C24.8609 8.38718 24.9152 8.53586 24.9369 8.69003C24.9585 8.8442 24.947 9.0008 24.903 9.15084C24.859 9.30087 24.7834 9.44136 24.6805 9.56423C24.5777 9.68709 24.4496 9.7899 24.3036 9.86674L22.9235 10.6047C22.6804 10.7352 22.4908 10.9365 22.3842 11.1772C22.2775 11.418 22.2599 11.6846 22.3341 11.9356V11.9344Z" fill="#797878"/>
</svg>
