<svg width="24" height="24" viewBox="0 0 24 24" fill="none" xmlns="http://www.w3.org/2000/svg">
<path d="M16.172 6.18728C17.5959 6.18728 18.7501 5.03301 18.7501 3.60914C18.7501 2.18528 17.5959 1.03101 16.172 1.03101C14.7481 1.03101 13.5939 2.18528 13.5939 3.60914C13.5939 5.03301 14.7481 6.18728 16.172 6.18728Z" fill="white"/>
<path d="M10.781 4.21877C11.946 4.21877 12.8904 3.27436 12.8904 2.10938C12.8904 0.944403 11.946 0 10.781 0C9.61603 0 8.67163 0.944403 8.67163 2.10938C8.67163 3.27436 9.61603 4.21877 10.781 4.21877Z" fill="white"/>
<path d="M5.85938 5.71901C7.02436 5.71901 7.96877 4.77461 7.96877 3.60963C7.96877 2.44465 7.02436 1.50024 5.85938 1.50024C4.6944 1.50024 3.75 2.44465 3.75 3.60963C3.75 4.77461 4.6944 5.71901 5.85938 5.71901Z" fill="white"/>
<path d="M2.10938 9.46865C3.27436 9.46865 4.21877 8.52424 4.21877 7.35926C4.21877 6.19428 3.27436 5.24988 2.10938 5.24988C0.944403 5.24988 0 6.19428 0 7.35926C0 8.52424 0.944403 9.46865 2.10938 9.46865Z" fill="white"/>
<path d="M13.245 17.3024C12.85 16.3118 12.4416 15.2875 12.5079 14.5C12.5787 13.6602 12.9877 12.7403 13.7236 11.7659C14.3493 10.9373 15.2063 9.80264 14.9562 8.39596C14.8037 7.53824 14.3545 6.84205 13.6573 6.38258C12.1495 5.38906 9.98369 5.74981 9.12245 5.95109C8.72106 6.04489 5.83866 7.09812 4.86801 8.98237C4.0567 10.5573 4.15439 12.2883 4.38079 13.9243C4.65 15.8692 4.98136 17.4499 5.42349 18.8988L5.42869 18.9158C5.87199 20.3684 6.37444 22.0148 7.7057 23.1037C8.3868 23.6601 9.25938 23.9781 10.1628 23.9991C10.1948 23.9998 10.2267 24.0002 10.2587 24.0002C11.118 24.0002 11.9663 23.7326 12.657 23.2419C13.6872 22.51 14.1724 21.5155 14.099 20.286C14.04 19.2962 13.6358 18.2826 13.245 17.3024Z" fill="white"/>
<path d="M22.2659 14.625C22.2659 13.4619 21.3196 12.5156 20.1565 12.5156C18.9934 12.5156 18.0471 13.4619 18.0471 14.625C18.0471 15.7881 18.9934 16.7344 20.1565 16.7344C21.3196 16.7344 22.2659 15.7881 22.2659 14.625ZM20.1565 15.7969C19.5103 15.7969 18.9846 15.2712 18.9846 14.625C18.9846 13.9788 19.5103 13.4531 20.1565 13.4531C20.8027 13.4531 21.3284 13.9788 21.3284 14.625C21.3284 15.2712 20.8027 15.7969 20.1565 15.7969Z" fill="white"/>
<path d="M17.4106 15.4434C17.2123 15.277 16.9166 15.3029 16.7503 15.5013C16.7234 15.5334 16.6946 15.5631 16.6645 15.5899C16.5102 15.7273 16.3122 15.7969 16.0758 15.7969C15.4296 15.7969 14.9039 15.2712 14.9039 14.6251C14.9039 13.9789 15.4296 13.4532 16.0758 13.4532C16.3108 13.4532 16.5372 13.5223 16.7306 13.653C16.9451 13.7979 17.2365 13.7416 17.3815 13.5271C17.5264 13.3126 17.47 13.0212 17.2555 12.8762C16.9064 12.6403 16.4985 12.5156 16.0758 12.5156C14.9127 12.5156 13.9664 13.4619 13.9664 14.625C13.9664 15.7881 14.9127 16.7344 16.0758 16.7344C16.5424 16.7344 16.9615 16.5807 17.2879 16.29C17.3518 16.2332 17.4125 16.1705 17.4685 16.1038C17.6349 15.9055 17.609 15.6098 17.4106 15.4434Z" fill="white"/>
<path d="M23.1971 19.5407C23.03 19.5427 22.8558 19.5445 22.6904 19.5456C22.8189 19.3697 22.9752 19.1521 23.1632 18.8834C23.3536 18.6113 23.4733 18.3621 23.5291 18.1217C23.5405 18.0608 23.5532 17.971 23.5548 17.9091C23.5548 17.2615 23.0279 16.7345 22.3802 16.7345C21.8202 16.7345 21.3354 17.1329 21.2276 17.6819C21.1777 17.936 21.3432 18.1824 21.5972 18.2323C21.8512 18.2821 22.0977 18.1167 22.1475 17.8626C22.1693 17.7522 22.2671 17.672 22.3802 17.672C22.5035 17.672 22.6051 17.7667 22.6163 17.8872L22.6109 17.9294C22.5882 18.0139 22.5319 18.1505 22.3951 18.3459C21.96 18.9676 21.7005 19.3073 21.5611 19.4898C21.3802 19.7267 21.2607 19.8832 21.3376 20.1333C21.3833 20.2817 21.4996 20.4 21.649 20.4498C21.7113 20.4706 21.7557 20.4854 22.3067 20.4854C22.5207 20.4854 22.8112 20.4832 23.2088 20.4781C23.4677 20.4749 23.6749 20.2624 23.6717 20.0035C23.6685 19.7446 23.4572 19.5366 23.1971 19.5407Z" fill="white"/>
</svg>
