<svg width="24" height="24" viewBox="0 0 24 24" fill="none" xmlns="http://www.w3.org/2000/svg">
<path d="M7.79517 3.3084C7.79517 3.3084 5.29077 2.6196 4.27917 4.8708C3.26757 7.122 2.41797 9.5136 2.41797 9.5136C2.41797 9.5136 1.59117 12.5244 3.95757 13.1208C6.32397 13.7172 7.69677 12.7536 8.59557 11.1672C9.42597 12.6384 10.7256 13.3956 11.8608 13.3956C12.996 13.3956 14.5488 13.0284 15.3768 10.9368C16.2204 12.4224 18.0888 14.4756 20.2716 13.0044C22.3392 11.5572 21.9528 9.696 21.6048 8.8596C21.2556 8.0232 19.674 4.7544 19.674 4.7544C19.674 4.7544 19.2144 3.3504 16.9392 3.2076C14.6652 3.066 7.79517 3.3084 7.79517 3.3084Z" fill="#F59099"/>
<path d="M17.5392 21.774H6.1836C4.3968 21.774 2.9436 20.3208 2.9436 18.534V15.6588C2.9436 15.3276 3.2124 15.0588 3.5436 15.0588C3.8748 15.0588 4.1436 15.3276 4.1436 15.6588V18.534C4.1436 19.6584 5.0592 20.574 6.1836 20.574H17.5404C18.6648 20.574 19.5804 19.6584 19.5804 18.534V15.6588C19.5804 15.3276 19.8492 15.0588 20.1804 15.0588C20.5116 15.0588 20.7804 15.3276 20.7804 15.6588V18.534C20.7792 20.3196 19.326 21.774 17.5392 21.774ZM17.8764 8.88958H5.7672C5.436 8.88958 5.1672 8.62078 5.1672 8.28958C5.1672 7.95838 5.436 7.68958 5.7672 7.68958H17.8776C18.2088 7.68958 18.4776 7.95838 18.4776 8.28958C18.4776 8.62078 18.2076 8.88958 17.8764 8.88958Z" fill="#4D4D4D"/>
<path d="M18.768 14.1767C17.3508 14.1767 16.0872 13.4376 15.3768 12.294C14.6676 13.4363 13.404 14.1767 11.9868 14.1767C10.5696 14.1767 9.30483 13.4376 8.59683 12.294C8.2387 12.8706 7.73921 13.3462 7.14573 13.6757C6.55225 14.0052 5.88444 14.1777 5.20563 14.1767C5.08443 14.1767 4.96203 14.1707 4.84083 14.1599C3.64923 14.0519 2.60523 13.3968 1.97763 12.3624C1.34163 11.3148 1.23722 10.0139 1.70042 8.88235L3.72363 3.93355C3.90024 3.49884 4.20276 3.12684 4.59235 2.86534C4.98194 2.60383 5.44081 2.46475 5.91003 2.46595H18.0144C18.9696 2.46595 19.8252 3.03595 20.1936 3.91795L22.254 8.85475C22.74 10.02 22.626 11.3544 21.9468 12.4248C21.2772 13.4808 20.1852 14.118 18.9504 14.1732C18.8892 14.1756 18.8292 14.1767 18.768 14.1767ZM15.3252 10.1772H15.4296C15.7212 10.1772 15.9696 10.386 16.02 10.6728C16.1331 11.3191 16.4708 11.9047 16.9736 12.3262C17.4764 12.7478 18.1119 12.9782 18.768 12.9768C18.8112 12.9768 18.8532 12.9756 18.8964 12.9743C19.734 12.9372 20.4768 12.5016 20.9328 11.7816C21.402 11.0424 21.4812 10.1208 21.1452 9.31675L19.0848 4.37995C18.9968 4.1683 18.8481 3.9875 18.6573 3.86041C18.4666 3.73332 18.2424 3.66565 18.0132 3.66595H5.90763C5.43363 3.66595 5.01123 3.94915 4.83243 4.38835L2.80923 9.33715C2.48523 10.1292 2.55602 11.0051 3.00122 11.7395C3.42963 12.4451 4.13883 12.8916 4.94763 12.9648C5.03283 12.9719 5.11923 12.9768 5.20443 12.9768C6.56163 12.9768 7.71723 12.0084 7.95123 10.6728C8.00163 10.386 8.25122 10.1772 8.54163 10.1772H8.64603C8.93763 10.1772 9.18603 10.386 9.23643 10.6728C9.47043 12.0084 10.626 12.9768 11.9832 12.9768C13.3404 12.9768 14.496 12.0084 14.73 10.6728C14.7559 10.5337 14.8296 10.4081 14.9383 10.3176C15.0469 10.2271 15.1838 10.1774 15.3252 10.1772Z" fill="#4D4D4D"/>
</svg>
