<svg width="24" height="24" viewBox="0 0 24 24" fill="none" xmlns="http://www.w3.org/2000/svg">
<path d="M5.62683 10.236C5.62683 10.8515 5.87134 11.4418 6.30658 11.877C6.74181 12.3122 7.33212 12.5568 7.94763 12.5568C8.56315 12.5568 9.15345 12.3122 9.58868 11.877C10.0239 11.4418 10.2684 10.8515 10.2684 10.236C10.2684 9.62045 10.0239 9.03014 9.58868 8.59491C9.15345 8.15967 8.56315 7.91516 7.94763 7.91516C7.33212 7.91516 6.74181 8.15967 6.30658 8.59491C5.87134 9.03014 5.62683 9.62045 5.62683 10.236Z" fill="#F59099"/>
<path d="M19.878 3.38159H4.31764C2.53084 3.38159 1.07764 4.83479 1.07764 6.62159V17.25C1.07764 19.0368 2.53084 20.49 4.31764 20.49H19.8792C21.666 20.49 23.1192 19.0368 23.1192 17.25V6.62159C23.118 4.83479 21.6648 3.38159 19.878 3.38159ZM21.918 17.2512C21.918 18.3756 21.0024 19.2912 19.878 19.2912H4.31764C3.19324 19.2912 2.27764 18.3756 2.27764 17.2512V6.62159C2.27764 5.49719 3.19324 4.58159 4.31764 4.58159H19.8792C21.0036 4.58159 21.9192 5.49719 21.9192 6.62159V17.2512H21.918Z" fill="#4D4D4D"/>
<path d="M9.83159 12.4656C10.4652 11.9292 10.8684 11.1288 10.8684 10.236C10.8684 8.62559 9.55799 7.31519 7.94759 7.31519C6.33719 7.31519 5.02559 8.62559 5.02559 10.236C5.02559 11.1288 5.42879 11.9292 6.06239 12.4656C4.94279 13.1172 4.18799 14.3304 4.18799 15.7164C4.18799 16.0476 4.45679 16.3164 4.78799 16.3164C5.11919 16.3164 5.38799 16.0476 5.38799 15.7164C5.38799 14.3052 6.53639 13.1568 7.94759 13.1568C9.35879 13.1568 10.5072 14.3052 10.5072 15.7164C10.5072 16.0476 10.776 16.3164 11.1072 16.3164C11.4384 16.3164 11.7072 16.0476 11.7072 15.7164C11.706 14.3292 10.9512 13.1172 9.83159 12.4656ZM6.22559 10.236C6.22559 9.28679 6.99719 8.51519 7.94639 8.51519C8.89559 8.51519 9.66719 9.28679 9.66719 10.236C9.66719 11.1852 8.89559 11.9568 7.94639 11.9568C6.99719 11.9568 6.22559 11.1852 6.22559 10.236ZM19.5144 8.87039H14.298C13.9668 8.87039 13.698 9.13919 13.698 9.47039C13.698 9.80159 13.9668 10.0704 14.298 10.0704H19.5144C19.8456 10.0704 20.1144 9.80159 20.1144 9.47039C20.1144 9.13919 19.8468 8.87039 19.5144 8.87039ZM19.5144 11.7768H14.298C13.9668 11.7768 13.698 12.0456 13.698 12.3768C13.698 12.708 13.9668 12.9768 14.298 12.9768H19.5144C19.8456 12.9768 20.1144 12.708 20.1144 12.3768C20.1144 12.0456 19.8468 11.7768 19.5144 11.7768ZM19.5144 14.5524H14.298C13.9668 14.5524 13.698 14.8212 13.698 15.1524C13.698 15.4836 13.9668 15.7524 14.298 15.7524H19.5144C19.8456 15.7524 20.1144 15.4836 20.1144 15.1524C20.1144 14.8212 19.8468 14.5524 19.5144 14.5524Z" fill="#4D4D4D"/>
</svg>
