<svg width="24" height="24" viewBox="0 0 24 24" fill="none" xmlns="http://www.w3.org/2000/svg">
<path d="M11.0244 8.70364C11.0244 9.31311 11.2665 9.89761 11.6975 10.3286C12.1284 10.7595 12.7129 11.0016 13.3224 11.0016C13.9319 11.0016 14.5164 10.7595 14.9473 10.3286C15.3783 9.89761 15.6204 9.31311 15.6204 8.70364C15.6204 8.09417 15.3783 7.50967 14.9473 7.07871C14.5164 6.64775 13.9319 6.40564 13.3224 6.40564C12.7129 6.40564 12.1284 6.64775 11.6975 7.07871C11.2665 7.50967 11.0244 8.09417 11.0244 8.70364Z" fill="#F59099"/>
<path d="M13.2804 11.0016C10.7484 11.0016 8.69641 13.0536 8.69641 15.5856V15.9492C8.69641 16.6596 9.27241 17.2356 9.98281 17.2356H16.578C17.2884 17.2356 17.8644 16.6596 17.8644 15.9492V15.5856C17.8644 13.0536 15.8124 11.0016 13.2804 11.0016Z" fill="#F59099"/>
<path d="M18.7092 1.94519H7.04638C5.25958 1.94519 3.80638 3.39839 3.80638 5.18519V8.10359H2.72158C2.39038 8.10359 2.12158 8.37239 2.12158 8.70359C2.12158 9.03479 2.39038 9.30359 2.72158 9.30359H3.80638V14.262H2.72158C2.39038 14.262 2.12158 14.5308 2.12158 14.862C2.12158 15.1932 2.39038 15.462 2.72158 15.462H3.80638V18.4416C3.80638 20.2284 5.25958 21.6816 7.04638 21.6816H18.7092C20.496 21.6816 21.9492 20.2284 21.9492 18.4416V5.18519C21.9492 3.39959 20.496 1.94519 18.7092 1.94519ZM20.7492 18.4416C20.7492 19.566 19.8336 20.4816 18.7092 20.4816H7.04638C5.92198 20.4816 5.00638 19.566 5.00638 18.4416V15.462H6.30598C6.63718 15.462 6.90598 15.1932 6.90598 14.862C6.90598 14.5308 6.63718 14.262 6.30598 14.262H5.00638V9.30359H6.30598C6.63718 9.30359 6.90598 9.03479 6.90598 8.70359C6.90598 8.37239 6.63718 8.10359 6.30598 8.10359H5.00638V5.18519C5.00638 4.06079 5.92198 3.14519 7.04638 3.14519H18.7092C19.8336 3.14519 20.7492 4.06079 20.7492 5.18519V18.4416Z" fill="#4D4D4D"/>
<path d="M15.306 10.8144C15.8688 10.2852 16.2204 9.53516 16.2204 8.70476C16.2204 7.10636 14.9208 5.80676 13.3224 5.80676C11.724 5.80676 10.4244 7.10636 10.4244 8.70476C10.4244 9.52316 10.7664 10.2636 11.3136 10.7904C9.42721 11.5668 8.09521 13.4232 8.09521 15.5868V15.9504C8.09521 16.9908 8.94121 17.8368 9.98161 17.8368H16.5768C17.6172 17.8368 18.4632 16.9908 18.4632 15.9504V15.5868C18.4644 13.446 17.1612 11.604 15.306 10.8144ZM13.3224 7.00556C14.2584 7.00556 15.0204 7.76756 15.0204 8.70356C15.0204 9.63956 14.2584 10.4016 13.3224 10.4016C12.3864 10.4016 11.6244 9.63956 11.6244 8.70356C11.6244 7.76756 12.3864 7.00556 13.3224 7.00556ZM17.2644 15.9492C17.2644 16.3284 16.956 16.6356 16.578 16.6356H9.98281C9.60361 16.6356 9.29641 16.3272 9.29641 15.9492V15.5856C9.29641 13.3884 11.0832 11.6016 13.2804 11.6016C15.4776 11.6016 17.2644 13.3884 17.2644 15.5856V15.9492Z" fill="#4D4D4D"/>
</svg>
