<svg width="24" height="24" viewBox="0 0 24 24" fill="none" xmlns="http://www.w3.org/2000/svg">
<path d="M12.1224 22.5277C6.32041 22.5277 1.59961 17.8069 1.59961 12.0049C1.59961 6.20286 6.32041 1.48206 12.1224 1.48206C17.9244 1.48206 22.6452 6.20286 22.6452 12.0049C22.6452 17.8069 17.9244 22.5277 12.1224 22.5277ZM12.1224 2.68206C6.98161 2.68206 2.79961 6.86406 2.79961 12.0049C2.79961 17.1457 6.98161 21.3277 12.1224 21.3277C17.2632 21.3277 21.4452 17.1457 21.4452 12.0049C21.4452 6.86406 17.2632 2.68206 12.1224 2.68206Z" fill="#4D4D4D"/>
<path d="M8.2428 8.76485C8.2428 9.27433 8.34315 9.77882 8.53811 10.2495C8.73308 10.7202 9.01885 11.1479 9.37911 11.5081C9.73936 11.8684 10.167 12.1542 10.6377 12.3491C11.1084 12.5441 11.6129 12.6445 12.1224 12.6445C12.6319 12.6445 13.1364 12.5441 13.6071 12.3491C14.0778 12.1542 14.5054 11.8684 14.8657 11.5081C15.2259 11.1479 15.5117 10.7202 15.7067 10.2495C15.9016 9.77882 16.002 9.27433 16.002 8.76485C16.002 7.73592 15.5933 6.74913 14.8657 6.02156C14.1381 5.294 13.1513 4.88525 12.1224 4.88525C11.0935 4.88525 10.1067 5.294 9.37911 6.02156C8.65154 6.74913 8.2428 7.73592 8.2428 8.76485Z" fill="#F59099"/>
<path d="M14.4768 12.5736C15.7512 11.7828 16.602 10.3716 16.602 8.76476C16.602 6.29516 14.592 4.28516 12.1224 4.28516C9.65278 4.28516 7.64278 6.29516 7.64278 8.76476C7.64278 10.3716 8.49358 11.7828 9.76798 12.5736C7.63678 13.4316 6.14038 15.4176 6.14038 17.7252C6.14038 18.0564 6.40918 18.3252 6.74038 18.3252C7.07158 18.3252 7.34038 18.0564 7.34038 17.7252C7.34038 15.2964 9.48598 13.3212 12.1236 13.3212C14.7612 13.3212 16.9056 15.2964 16.9056 17.7252C16.9056 18.0564 17.1744 18.3252 17.5056 18.3252C17.8368 18.3252 18.1056 18.0564 18.1056 17.7252C18.1044 15.4164 16.608 13.4316 14.4768 12.5736ZM8.84278 8.76476C8.84278 6.95636 10.314 5.48516 12.1224 5.48516C13.9308 5.48516 15.402 6.95636 15.402 8.76476C15.402 10.5732 13.9308 12.0444 12.1224 12.0444C10.314 12.0444 8.84278 10.5732 8.84278 8.76476Z" fill="#4D4D4D"/>
</svg>
