<svg width="20" height="20" viewBox="0 0 20 20" fill="none" xmlns="http://www.w3.org/2000/svg">
<g clip-path="url(#clip0_1_1476)">
<path d="M14.1667 12.5C10.6767 12.5 8.89167 15.4158 8.45917 16.25C8.8925 17.0842 10.6767 20 14.1667 20C17.6567 20 19.4417 17.0842 19.8742 16.25C19.4408 15.4158 17.6567 12.5 14.1667 12.5ZM14.1667 19.1667C11.415 19.1667 9.9725 17.26 9.4025 16.25C9.97333 15.24 11.415 13.3333 14.1667 13.3333C16.9183 13.3333 18.3608 15.24 18.9308 16.25C18.36 17.26 16.9183 19.1667 14.1667 19.1667ZM7.5 8.75H16.6667V9.58333H7.5V8.75ZM14.1667 14.5833C13.2475 14.5833 12.5 15.3308 12.5 16.25C12.5 17.1692 13.2475 17.9167 14.1667 17.9167C15.0858 17.9167 15.8333 17.1692 15.8333 16.25C15.8333 15.3308 15.0858 14.5833 14.1667 14.5833ZM14.1667 17.0833C13.7075 17.0833 13.3333 16.71 13.3333 16.25C13.3333 15.79 13.7075 15.4167 14.1667 15.4167C14.6258 15.4167 15 15.79 15 16.25C15 16.71 14.6258 17.0833 14.1667 17.0833ZM5 4.58333C5 5.04333 4.62667 5.41667 4.16667 5.41667C3.70667 5.41667 3.33333 5.04333 3.33333 4.58333C3.33333 4.12333 3.70667 3.75 4.16667 3.75C4.62667 3.75 5 4.12333 5 4.58333ZM5 9.16667C5 9.62667 4.62667 10 4.16667 10C3.70667 10 3.33333 9.62667 3.33333 9.16667C3.33333 8.70667 3.70667 8.33333 4.16667 8.33333C4.62667 8.33333 5 8.70667 5 9.16667ZM16.6667 5H7.5V4.16667H16.6667V5ZM5 13.75C5 14.21 4.62667 14.5833 4.16667 14.5833C3.70667 14.5833 3.33333 14.21 3.33333 13.75C3.33333 13.29 3.70667 12.9167 4.16667 12.9167C4.62667 12.9167 5 13.29 5 13.75ZM20 2.08333V13.4867C19.7567 13.2142 19.48 12.9367 19.1667 12.6692V2.08333C19.1667 1.39417 18.6058 0.833333 17.9167 0.833333H2.08333C1.39417 0.833333 0.833333 1.39417 0.833333 2.08333V17.5H7.23833C7.3725 17.7325 7.5525 18.02 7.7825 18.3333H0V2.08333C0 0.935 0.935 0 2.08333 0H17.9167C19.065 0 20 0.935 20 2.08333Z" fill="white"/>
</g>
<defs>
<clipPath id="clip0_1_1476">
<rect width="20" height="20" fill="white"/>
</clipPath>
</defs>
</svg>
