<svg width="216" height="75" viewBox="0 0 216 75" fill="none" xmlns="http://www.w3.org/2000/svg">
<path d="M175.704 42.9178L179.76 46.2918C178.821 47.4597 177.633 48.4022 176.284 49.0501C174.934 49.698 173.457 50.035 171.961 50.0362C166.394 50.0362 161.879 45.4545 161.879 39.8032C161.879 34.152 166.394 29.5752 171.961 29.5752C173.74 29.5787 175.486 30.0552 177.022 30.956C178.557 31.8568 179.827 33.1497 180.701 34.7028L180.714 34.7299L175.965 37.0492L170.253 39.8156L173.671 35.2091C173.127 35.0019 172.55 34.8964 171.968 34.8979C170.688 34.9267 169.47 35.4565 168.575 36.374C167.68 37.2915 167.179 38.5237 167.179 39.8069C167.179 41.0901 167.68 42.3224 168.575 43.2399C169.47 44.1573 170.688 44.6872 171.968 44.716C172.685 44.7143 173.393 44.5519 174.039 44.2408C174.685 43.9297 175.254 43.4777 175.704 42.9178Z" fill="#2B2C2C"/>
<path d="M83.5395 42.7474L87.5957 46.1189C86.6574 47.2877 85.4698 48.2309 84.1201 48.8793C82.7704 49.5277 81.2929 49.8648 79.7962 49.8658C74.2294 49.8658 69.7148 45.2841 69.7148 39.6328C69.7148 33.9816 74.2294 29.4047 79.7962 29.4047C81.5754 29.4083 83.3219 29.8848 84.8574 30.7855C86.393 31.6863 87.6627 32.9792 88.537 34.5324C88.5411 34.5419 88.546 34.551 88.5518 34.5595L83.7859 36.8689L78.0687 39.6452L81.4867 35.0387C80.943 34.8307 80.3658 34.7243 79.7839 34.725C78.5039 34.7538 77.2861 35.2836 76.391 36.2011C75.4959 37.1186 74.9947 38.3508 74.9947 39.634C74.9947 40.9173 75.4959 42.1495 76.391 43.067C77.2861 43.9844 78.5039 44.5143 79.7839 44.5431C80.504 44.5443 81.2152 44.3836 81.8652 44.0728C82.5151 43.7621 83.0873 43.3091 83.5395 42.7474Z" fill="#2B2C2C"/>
<path d="M46.1143 42.7474L50.1705 46.1189C49.2341 47.2861 48.0489 48.2285 46.7019 48.8768C45.3549 49.5252 43.8801 49.8631 42.3858 49.8658C36.819 49.8658 32.3044 45.2841 32.3044 39.6328C32.3044 33.9816 36.819 29.4047 42.3858 29.4047C44.165 29.4083 45.9115 29.8848 47.447 30.7855C48.9826 31.6863 50.2523 32.9792 51.1266 34.5324L51.139 34.5595L46.3829 36.8689L40.6608 39.6452L44.0763 35.0387C43.5335 34.8307 42.9571 34.7244 42.3759 34.725C41.096 34.7538 39.8781 35.2836 38.9831 36.2011C38.088 37.1186 37.5868 38.3508 37.5868 39.634C37.5868 40.9173 38.088 42.1495 38.9831 43.067C39.8781 43.9844 41.096 44.5143 42.3759 44.5431C43.0932 44.542 43.8012 44.3803 44.448 44.0696C45.0948 43.7589 45.6641 43.3071 46.1143 42.7474Z" fill="#2B2C2C"/>
<path d="M11.2027 23.4225C14.9311 23.4225 18.5734 23.4225 22.2156 23.4225C24.8696 23.4225 27.1713 24.2845 28.9037 26.3321C30.0868 27.6689 30.822 29.3439 31.0057 31.1214C31.2916 34.0285 30.3822 36.4293 28.3319 38.5608C29.781 40.4084 29.5937 42.6239 29.5887 44.8073C29.5887 46.4573 29.5887 48.1047 29.5887 49.8139H24.2067V46.3091C24.2067 45.0741 24.2067 43.8169 24.2067 42.572C24.2067 41.7125 23.3837 40.8431 22.5507 40.8258C20.185 40.806 17.8193 40.8258 15.3796 40.8258V49.8238H10.0198V23.4225H11.2027ZM15.3575 33.7667V35.4265C17.3289 35.4265 19.1993 35.4413 21.0697 35.4265C21.807 35.4317 22.5433 35.3722 23.2703 35.2486C24.6503 35.0016 25.8677 33.3838 25.7691 32.055C25.6508 30.4569 24.118 28.8441 22.632 28.8317C21.0155 28.8045 19.3989 28.8317 17.7848 28.8317H15.3575V33.7667Z" fill="#2B2C2C"/>
<path d="M147.949 23.4225H149.464V28.7749C149.23 28.7749 148.971 28.812 148.725 28.8144C145.95 28.8144 143.17 28.9182 140.401 28.7873C137.389 28.644 134.876 31.5338 134.925 34.2903C134.957 35.9723 134.925 37.6519 134.925 39.3315C134.925 41.8409 137.441 44.5184 140.031 44.4813C143.148 44.4369 146.268 44.4813 149.444 44.4813V49.8312C149.225 49.846 148.976 49.8707 148.727 49.8707C145.81 49.8707 142.889 49.9053 139.972 49.8707C137.469 49.8474 135.062 48.9024 133.21 47.2155C132.21 46.3718 131.387 45.3385 130.788 44.175C130.188 43.0115 129.824 41.7406 129.715 40.4355C129.422 37.2617 129.24 34.068 130.09 30.9682C130.955 27.8141 133.064 25.643 136.031 24.2994C137.668 23.5584 139.395 23.3879 141.172 23.4176C143.422 23.4645 145.64 23.4225 147.949 23.4225Z" fill="#2B2C2C"/>
<path d="M158.796 29.7258C159.592 29.6147 160.319 29.5381 161.103 29.4566V34.6435C158.565 35.0338 156.771 36.2786 156.174 38.9091C156.121 39.1915 156.097 39.4788 156.105 39.7662C156.105 43.0932 156.105 46.4227 156.105 49.8016H150.906V47.423C150.906 44.874 150.861 42.3226 150.906 39.7662C150.994 35.5426 152.973 32.4428 156.665 30.4569C157.303 30.1186 158.042 29.9852 158.796 29.7258Z" fill="#2B2C2C"/>
<path d="M111.504 36.7355C110.61 38.1731 109.705 39.5488 108.747 40.9542C108.378 40.5517 108.035 40.1269 107.719 39.6822C107.735 39.4163 107.803 39.1561 107.919 38.9165C108.72 37.6815 109.543 36.4811 110.413 35.2437C110.811 35.7143 111.176 36.2129 111.504 36.7355Z" fill="#020202"/>
<path d="M127.157 23.4423H126.522L125.043 25.6973H125.058C123.719 27.726 122.387 29.7588 121.063 31.7956C119.814 33.7074 118.574 35.6241 117.317 37.5309C116.475 38.8054 115.607 40.0626 114.75 41.3321L111.514 36.8022C110.61 38.178 109.705 39.5538 108.774 41.016C110.745 44.0491 112.751 46.9932 114.804 50.0165L132.241 23.4225C130.423 23.4225 128.784 23.4003 127.157 23.4423Z" fill="#BE202E"/>
<path d="M118.202 23.4225H112.507L111.696 24.6575C110.644 26.1963 109.592 27.7375 108.569 29.2985C105.942 33.3048 103.34 37.3283 100.684 41.4013C99.3035 39.4253 97.9605 37.5037 96.6076 35.5944L95.0797 33.3418H93.372C92.0388 33.3196 90.6785 33.3418 89.2098 33.3418L100.826 50.1029C100.9 49.9291 100.982 49.7592 101.073 49.5941C102.519 47.3712 103.963 45.1482 105.425 42.9425C106.164 41.8261 106.93 40.7344 107.685 39.6328C107.729 39.386 107.805 39.146 107.911 38.919C108.712 37.684 109.535 36.4836 110.43 35.1918C113.049 31.2597 115.575 27.4164 118.202 23.4225Z" fill="#BE202E"/>
<path d="M67.7458 37.1456C66.9129 33.9972 64.9989 31.7347 62.004 30.3581C60.279 29.5653 58.5023 29.4838 56.7107 29.5011H56.7378L52.9477 29.4863H52.8467V49.8164H58.0759V34.6682C58.647 34.7965 59.2092 34.9615 59.759 35.1622C61.9769 36.1107 62.8788 37.9236 62.9035 40.2305C62.9355 43.1945 62.9035 46.1436 62.9035 49.1001C62.9035 49.3471 62.9306 49.5941 62.9429 49.8139H68.1179C68.1179 46.6228 68.1475 43.4933 68.1031 40.3664C68.1152 39.2822 67.9952 38.2006 67.7458 37.1456Z" fill="#2B2C2C"/>
<path d="M201.682 24.0968C201.682 29.7456 201.766 35.3968 201.682 41.0431C201.653 42.9524 200.795 44.6789 199.568 46.1806C198.139 47.9343 196.387 49.1816 194.159 49.6978C190.692 50.503 187.555 49.9103 184.856 47.4749C183.267 46.0349 182.084 44.3504 181.672 42.1991C181 38.7066 181.648 35.5969 184.137 32.917C186.355 30.5212 189.09 29.5307 192.289 29.674C192.797 29.6873 193.303 29.7611 193.794 29.8938C193.909 29.9472 194.009 30.0276 194.086 30.1283C194.163 30.229 194.214 30.3468 194.235 30.4718C194.272 32.1513 194.255 33.8284 194.255 35.6142C193.703 35.4141 193.227 35.2116 192.735 35.0659C189.531 34.1174 186.204 37.1999 186.64 40.4133C186.904 42.3596 188.043 43.765 189.879 44.4863C191.517 45.1309 193.067 44.8691 194.489 43.7947C195.911 42.7202 196.517 41.3025 196.515 39.5562C196.515 34.399 196.515 29.2417 196.586 24.0079C197.274 23.5633 197.922 23.2422 198.491 22.8199C198.925 22.4963 199.248 22.5432 199.654 22.8199C200.315 23.2595 201.002 23.6695 201.682 24.0968Z" fill="#2B2C2C"/>
<path d="M196.581 21.9233V24.1857L199.129 22.6445L201.678 24.1857V21.9233L199.129 20.382L196.581 21.9233Z" fill="#020202"/>
<path d="M192.281 18.448V24.5291L199.129 20.3845L205.98 24.5291V18.448L199.129 14.3035L192.281 18.448Z" fill="#BE202E"/>
</svg>
