<svg width="24" height="24" viewBox="0 0 24 24" fill="none" xmlns="http://www.w3.org/2000/svg">
<path fill-rule="evenodd" clip-rule="evenodd" d="M3 4C3 3.44772 3.44772 3 4 3H8.17157C8.43679 3 8.69114 3.10536 8.87868 3.29289L11.2929 5.70711C11.4804 5.89464 11.7348 6 12 6H20C20.5523 6 21 6.44772 21 7V19C21 19.5523 20.5523 20 20 20H4C3.44772 20 3 19.5523 3 19V4ZM4 1C2.34315 1 1 2.34315 1 4V19C1 20.6569 2.34315 22 4 22H20C21.6569 22 23 20.6569 23 19V7C23 5.34315 21.6569 4 20 4H12.4142L10.2929 1.87868C9.73028 1.31607 8.96722 1 8.17157 1H4ZM13.032 15.4462C12.4365 15.7981 11.7418 16 11 16C8.79086 16 7 14.2091 7 12C7 9.79086 8.79086 8 11 8C13.2091 8 15 9.79086 15 12C15 12.7418 14.7981 13.4365 14.4462 14.032L16.7071 16.2929C17.0976 16.6834 17.0976 17.3166 16.7071 17.7071C16.3166 18.0976 15.6834 18.0976 15.2929 17.7071L13.032 15.4462ZM11 10C9.89543 10 9 10.8954 9 12C9 13.1046 9.89543 14 11 14C12.1046 14 13 13.1046 13 12C13 10.8954 12.1046 10 11 10Z" fill="#202020"/>
</svg>
