<svg width="24" height="24" viewBox="0 0 24 24" fill="none" xmlns="http://www.w3.org/2000/svg">
<path d="M19.8368 7.99967C22.1328 7.99967 24 6.20574 24 3.99983C24 1.79393 22.1328 0 19.8368 0C17.5408 0 15.6737 1.79393 15.6737 3.99983C15.6737 6.20574 17.5408 7.99967 19.8368 7.99967ZM19.8368 1.99992C20.9848 1.99992 21.9184 2.89688 21.9184 3.99983C21.9184 5.10279 20.9848 5.99975 19.8368 5.99975C18.6888 5.99975 17.7552 5.10279 17.7552 3.99983C17.7552 2.89688 18.6888 1.99992 19.8368 1.99992ZM21.781 10.3006C21.6488 9.76259 21.0785 9.43161 20.53 9.5556C19.9701 9.6826 19.6235 10.2206 19.7546 10.7576L20.8547 15.2464C21.0462 15.9043 20.9078 16.5943 20.4748 17.1393C20.0387 17.6863 19.3758 17.9993 18.6555 17.9993H4.36546C3.66813 17.9993 3.01868 17.7023 2.58363 17.1843C2.14962 16.6673 1.98725 16.0013 2.12672 15.3984L4.30614 7.62168C5.07632 4.31182 8.0967 2.00092 11.65 2.00092C12.0975 2.00092 12.544 2.03892 12.977 2.11491C13.5505 2.21291 14.0844 1.85092 14.1874 1.30895C14.2905 0.764968 13.9137 0.24499 13.3485 0.145994C12.7928 0.048998 12.2214 0 11.6489 0C7.11419 0 3.2591 2.95488 2.28492 7.1437L0.1055 14.9194C-0.18384 16.1633 0.128397 17.4463 0.963112 18.4402C1.79471 19.4312 3.03533 20.0002 4.36546 20.0002H6.41166C6.89563 22.2791 8.99699 24 11.5105 24C14.024 24 16.1254 22.2791 16.6093 20.0002H18.6545C20.0283 20.0002 21.295 19.4002 22.1276 18.3542C22.9613 17.3063 23.2277 15.9773 22.8697 14.7494L21.781 10.3016V10.3006ZM11.5105 21.9991C10.1554 21.9991 9.01052 21.1601 8.57963 19.9992H14.4403C14.0094 21.1601 12.8646 21.9991 11.5095 21.9991H11.5105Z" fill="#202020"/>
</svg>
