<svg width="24" height="24" viewBox="0 0 24 24" fill="none" xmlns="http://www.w3.org/2000/svg">
<g clip-path="url(#clip0_2_97)">
<path d="M14 4V3.5C14 1.57 15.57 0 17.5 0C18.056 0 18.595 0.133 19.085 0.387C19.552 0.21 20.261 0 21 0C22.654 0 24 1.346 24 3C24 4.654 22.654 6 21 6C20.447 6 20 5.553 20 5C20 4.447 20.447 4 21 4C21.553 4 22 3.552 22 3C22 2.448 21.552 2 21 2C20.388 2 19.676 2.291 19.453 2.403C19.11 2.576 18.7 2.539 18.396 2.308C18.209 2.167 17.903 1.999 17.5 1.999C16.673 1.999 16 2.672 16 3.499V3.999C16 4.552 15.553 4.999 15 4.999C14.447 4.999 14 4.553 14 4ZM6 5C6.552 5 7 4.553 7 4V3.5C7 2.673 7.673 2 8.5 2C8.904 2 9.21 2.168 9.396 2.309C9.701 2.539 10.113 2.577 10.453 2.404C10.676 2.292 11.389 2.001 12 2.001C12.552 2.001 13 1.554 13 1.001C13 0.448 12.552 0.001 12 0.001C11.261 0.001 10.552 0.211 10.085 0.388C9.594 0.134 9.056 0.001 8.5 0.001C6.57 0.001 5 1.571 5 3.501V4.001C5 4.554 5.448 5 6 5ZM16.746 20.255C17.149 21.064 17.107 22.005 16.632 22.773C16.157 23.542 15.334 24.001 14.431 24.001H2.548C1.644 24.001 0.821 23.542 0.346 22.773C-0.129 22.004 -0.171 21.063 0.233 20.255L1.395 17.931C2.431 15.86 2.978 13.539 2.978 11.223V9C2.978 7.897 3.875 7 4.978 7H11.999C13.102 7 13.999 7.897 13.999 9V11.223C13.999 13.54 14.547 15.86 15.583 17.931L16.746 20.255ZM4.979 11.223C4.979 11.817 4.943 12.41 4.88 13H12.099C12.036 12.409 12 11.816 12 11.223V9H4.979V11.223ZM14.957 21.15L13.795 18.826C13.188 17.613 12.733 16.325 12.431 15.001H4.549C4.247 16.325 3.792 17.613 3.185 18.826L2.023 21.15C1.891 21.415 1.997 21.638 2.048 21.721C2.1 21.805 2.253 22 2.548 22H14.43C14.726 22 14.878 21.805 14.93 21.721C14.982 21.638 15.089 21.414 14.957 21.15ZM22.562 17.931C21.527 15.859 20.979 13.539 20.979 11.223V9C20.979 7.897 20.082 7 18.979 7H16.958C16.405 7 15.958 7.447 15.958 8C15.958 8.553 16.405 9 16.958 9H18.979V11.223C18.979 11.816 19.015 12.41 19.078 13H17C16.447 13 16 13.447 16 14C16 14.553 16.447 15 17 15H19.41C19.712 16.324 20.167 17.612 20.773 18.825L21.935 21.149C22.068 21.414 21.961 21.637 21.91 21.721C21.858 21.804 21.706 21.999 21.41 21.999H20C19.447 21.999 19 22.446 19 22.999C19 23.552 19.447 23.999 20 23.999H21.41C22.313 23.999 23.137 23.54 23.612 22.771C24.087 22.002 24.129 21.061 23.724 20.253L22.562 17.929V17.931Z" fill="#202020"/>
</g>
<defs>
<clipPath id="clip0_2_97">
<rect width="24" height="24" fill="white"/>
</clipPath>
</defs>
</svg>
