<svg width="24" height="24" viewBox="0 0 24 24" fill="none" xmlns="http://www.w3.org/2000/svg">
<path d="M11.9531 14.1094C11.5654 14.1094 11.25 13.794 11.25 13.4062V12.2276C12.9114 11.4362 14.0625 9.74072 14.0625 7.78125V7.07812H16.1719C16.5602 7.07812 16.875 6.76331 16.875 6.375C16.875 5.98669 16.5602 5.67188 16.1719 5.67188H14.0625V3.5625C14.0625 2.39939 13.1162 1.45312 11.9531 1.45312C11.583 1.45312 11.2186 1.55063 10.8993 1.73498L9.49224 2.54752C9.27534 2.67277 9.00591 2.67277 8.78901 2.54752L7.38192 1.73498C7.06261 1.55063 6.6982 1.45312 6.32812 1.45312C5.16502 1.45312 4.21875 2.39939 4.21875 3.5625V5.67188H2.10938C1.72106 5.67188 1.40625 5.98669 1.40625 6.375C1.40625 6.76331 1.72106 7.07812 2.10938 7.07812H4.21875V7.78125C4.21875 9.74072 5.36986 11.4362 7.03125 12.2276V13.4062C7.03125 13.794 6.71583 14.1094 6.32812 14.1094C2.826 14.1094 0 16.963 0 20.4375V21.8438C0 22.2321 0.314812 22.5469 0.703125 22.5469H17.5781C17.9664 22.5469 18.2812 22.2321 18.2812 21.8438V20.4375C18.2812 16.9608 15.452 14.1094 11.9531 14.1094ZM4.92188 19.7344H13.3594C13.7471 19.7344 14.0625 20.0498 14.0625 20.4375V21.1406H4.21875V20.4375C4.21875 20.0498 4.53417 19.7344 4.92188 19.7344ZM12.6562 18.3281H5.625V15.5661C5.85469 15.5331 6.08934 15.5156 6.32803 15.5156C6.98677 16.3931 8.02608 16.9219 9.14062 16.9219C10.2552 16.9219 11.2945 16.3931 11.9532 15.5156C12.1919 15.5156 12.4266 15.5331 12.6562 15.5661V18.3281ZM6.32812 2.85938C6.45342 2.85938 6.57136 2.89078 6.6787 2.9528L8.0858 3.76533C8.73642 4.14108 9.54483 4.14108 10.1955 3.76533L11.6026 2.9528C11.7099 2.89078 11.8278 2.85938 11.9531 2.85938C12.3408 2.85938 12.6562 3.1748 12.6562 3.5625V5.67188H5.625V3.5625C5.625 3.1748 5.94042 2.85938 6.32812 2.85938ZM5.625 7.78125V7.07812H12.6562V7.78125C12.6562 9.71977 11.0791 11.2969 9.14062 11.2969C7.20211 11.2969 5.625 9.71977 5.625 7.78125ZM9.14062 12.7031C9.37936 12.7031 9.61402 12.6857 9.84375 12.6527V13.4062C9.84375 14.0299 10.116 14.591 10.5478 14.9775C10.1663 15.3187 9.66745 15.5156 9.14062 15.5156C8.6138 15.5156 8.11491 15.3187 7.73348 14.9775C8.1652 14.591 8.4375 14.0299 8.4375 13.4062V12.6527C8.66723 12.6857 8.90189 12.7031 9.14062 12.7031ZM1.40625 20.4375C1.40625 18.478 2.55736 16.7825 4.21875 15.9912V18.4491C3.40036 18.7393 2.8125 19.5209 2.8125 20.4375V21.1406H1.40625V20.4375ZM16.875 21.1406H15.4688V20.4375C15.4688 19.5209 14.8809 18.7393 14.0625 18.4491V15.9912C15.7239 16.7825 16.875 18.478 16.875 20.4375V21.1406Z" fill="black"/>
<path d="M23.2969 8.48438C22.9086 8.48438 22.5938 8.79919 22.5938 9.1875V11.2969H21.1875V9.1875C21.1875 8.79919 20.8727 8.48438 20.4844 8.48438C20.0961 8.48438 19.7812 8.79919 19.7812 9.1875V11.2969H18.375V9.1875C18.375 8.79919 18.0602 8.48438 17.6719 8.48438C17.2836 8.48438 16.9688 8.79919 16.9688 9.1875V13.4062C16.9688 14.5694 17.915 15.5156 19.0781 15.5156H19.7812V21.8438C19.7812 22.2321 20.0961 22.5469 20.4844 22.5469C20.8727 22.5469 21.1875 22.2321 21.1875 21.8438V15.5156H21.8906C23.0537 15.5156 24 14.5694 24 13.4062V9.1875C24 8.79919 23.6852 8.48438 23.2969 8.48438ZM21.8906 14.1094H19.0781C18.6904 14.1094 18.375 13.794 18.375 13.4062V12.7031H22.5938V13.4062C22.5938 13.794 22.2783 14.1094 21.8906 14.1094Z" fill="black"/>
</svg>
